<svg width="190" height="78" viewBox="0 0 190 78" fill="none" xmlns="http://www.w3.org/2000/svg">
<g filter="url(#filter0_d)">
<rect x="10.5" y="7.5" width="169" height="57" rx="3.5" stroke="#45BFEB"/>
</g>
<path d="M78.484 31C78.136 31 77.86 30.904 77.656 30.712C77.464 30.52 77.368 30.25 77.368 29.902V19.408C77.368 19.06 77.464 18.79 77.656 18.598C77.86 18.406 78.136 18.31 78.484 18.31H82.048C84.124 18.31 85.732 18.868 86.872 19.984C88.024 21.088 88.6 22.642 88.6 24.646C88.6 26.662 88.024 28.228 86.872 29.344C85.732 30.448 84.124 31 82.048 31H78.484ZM81.904 29.11C84.82 29.11 86.278 27.622 86.278 24.646C86.278 21.682 84.82 20.2 81.904 20.2H79.69V29.11H81.904ZM94.7543 31.144C93.8543 31.144 93.0623 30.958 92.3783 30.586C91.7063 30.214 91.1843 29.68 90.8123 28.984C90.4403 28.288 90.2543 27.478 90.2543 26.554C90.2543 25.63 90.4403 24.826 90.8123 24.142C91.1843 23.446 91.7063 22.912 92.3783 22.54C93.0623 22.168 93.8543 21.982 94.7543 21.982C95.6543 21.982 96.4403 22.168 97.1123 22.54C97.7963 22.912 98.3183 23.446 98.6783 24.142C99.0503 24.826 99.2363 25.63 99.2363 26.554C99.2363 27.478 99.0503 28.288 98.6783 28.984C98.3183 29.68 97.7963 30.214 97.1123 30.586C96.4403 30.958 95.6543 31.144 94.7543 31.144ZM94.7363 29.398C95.4683 29.398 96.0263 29.158 96.4103 28.678C96.7943 28.198 96.9863 27.49 96.9863 26.554C96.9863 25.63 96.7943 24.928 96.4103 24.448C96.0263 23.956 95.4743 23.71 94.7543 23.71C94.0343 23.71 93.4763 23.956 93.0803 24.448C92.6963 24.928 92.5043 25.63 92.5043 26.554C92.5043 27.49 92.6963 28.198 93.0803 28.678C93.4643 29.158 94.0163 29.398 94.7363 29.398ZM112.851 22.684C112.935 22.468 113.055 22.306 113.211 22.198C113.379 22.09 113.559 22.036 113.751 22.036C114.027 22.036 114.273 22.132 114.489 22.324C114.717 22.504 114.831 22.732 114.831 23.008C114.831 23.164 114.801 23.302 114.741 23.422L111.771 30.388C111.675 30.616 111.525 30.79 111.321 30.91C111.129 31.03 110.913 31.09 110.673 31.09C110.445 31.09 110.229 31.03 110.025 30.91C109.833 30.79 109.689 30.616 109.593 30.388L107.451 25.24L105.381 30.388C105.285 30.616 105.135 30.79 104.931 30.91C104.739 31.03 104.523 31.09 104.283 31.09C104.055 31.09 103.839 31.03 103.635 30.91C103.431 30.79 103.281 30.616 103.185 30.388L100.233 23.422C100.173 23.266 100.143 23.134 100.143 23.026C100.143 22.75 100.263 22.516 100.503 22.324C100.743 22.12 101.007 22.018 101.295 22.018C101.499 22.018 101.685 22.072 101.853 22.18C102.021 22.288 102.147 22.45 102.231 22.666L104.355 28.156L106.533 22.72C106.629 22.492 106.767 22.324 106.947 22.216C107.127 22.096 107.325 22.036 107.541 22.036C107.757 22.036 107.955 22.096 108.135 22.216C108.315 22.324 108.453 22.492 108.549 22.72L110.745 28.174L112.851 22.684ZM121.481 21.982C122.537 21.982 123.323 22.282 123.839 22.882C124.355 23.482 124.613 24.388 124.613 25.6V30.028C124.613 30.364 124.511 30.628 124.307 30.82C124.115 31.012 123.845 31.108 123.497 31.108C123.149 31.108 122.873 31.012 122.669 30.82C122.465 30.628 122.363 30.364 122.363 30.028V25.726C122.363 25.042 122.231 24.544 121.967 24.232C121.715 23.92 121.313 23.764 120.761 23.764C120.113 23.764 119.591 23.968 119.195 24.376C118.811 24.784 118.619 25.33 118.619 26.014V30.028C118.619 30.364 118.517 30.628 118.313 30.82C118.109 31.012 117.833 31.108 117.485 31.108C117.137 31.108 116.861 31.012 116.657 30.82C116.465 30.628 116.369 30.364 116.369 30.028V23.062C116.369 22.75 116.471 22.498 116.675 22.306C116.879 22.114 117.155 22.018 117.503 22.018C117.815 22.018 118.067 22.114 118.259 22.306C118.463 22.486 118.565 22.726 118.565 23.026V23.512C118.865 23.02 119.267 22.642 119.771 22.378C120.275 22.114 120.845 21.982 121.481 21.982ZM128.015 31.108C127.691 31.108 127.421 31.018 127.205 30.838C127.001 30.646 126.899 30.376 126.899 30.028V19.282C126.899 18.934 127.001 18.67 127.205 18.49C127.421 18.31 127.691 18.22 128.015 18.22C128.339 18.22 128.609 18.31 128.825 18.49C129.041 18.67 129.149 18.934 129.149 19.282V30.028C129.149 30.376 129.041 30.646 128.825 30.838C128.609 31.018 128.339 31.108 128.015 31.108ZM135.483 31.144C134.583 31.144 133.791 30.958 133.107 30.586C132.435 30.214 131.913 29.68 131.541 28.984C131.169 28.288 130.983 27.478 130.983 26.554C130.983 25.63 131.169 24.826 131.541 24.142C131.913 23.446 132.435 22.912 133.107 22.54C133.791 22.168 134.583 21.982 135.483 21.982C136.383 21.982 137.169 22.168 137.841 22.54C138.525 22.912 139.047 23.446 139.407 24.142C139.779 24.826 139.965 25.63 139.965 26.554C139.965 27.478 139.779 28.288 139.407 28.984C139.047 29.68 138.525 30.214 137.841 30.586C137.169 30.958 136.383 31.144 135.483 31.144ZM135.465 29.398C136.197 29.398 136.755 29.158 137.139 28.678C137.523 28.198 137.715 27.49 137.715 26.554C137.715 25.63 137.523 24.928 137.139 24.448C136.755 23.956 136.203 23.71 135.483 23.71C134.763 23.71 134.205 23.956 133.809 24.448C133.425 24.928 133.233 25.63 133.233 26.554C133.233 27.49 133.425 28.198 133.809 28.678C134.193 29.158 134.745 29.398 135.465 29.398ZM145.638 21.982C146.862 21.982 147.768 22.288 148.356 22.9C148.956 23.5 149.256 24.418 149.256 25.654V30.046C149.256 30.37 149.16 30.628 148.968 30.82C148.776 31 148.512 31.09 148.176 31.09C147.864 31.09 147.606 30.994 147.402 30.802C147.21 30.61 147.114 30.358 147.114 30.046V29.65C146.91 30.118 146.586 30.484 146.142 30.748C145.71 31.012 145.206 31.144 144.63 31.144C144.042 31.144 143.508 31.024 143.028 30.784C142.548 30.544 142.17 30.214 141.894 29.794C141.618 29.374 141.48 28.906 141.48 28.39C141.48 27.742 141.642 27.232 141.966 26.86C142.302 26.488 142.842 26.218 143.586 26.05C144.33 25.882 145.356 25.798 146.664 25.798H147.114V25.384C147.114 24.796 146.988 24.37 146.736 24.106C146.484 23.83 146.076 23.692 145.512 23.692C145.164 23.692 144.81 23.746 144.45 23.854C144.09 23.95 143.664 24.094 143.172 24.286C142.86 24.442 142.632 24.52 142.488 24.52C142.272 24.52 142.092 24.442 141.948 24.286C141.816 24.13 141.75 23.926 141.75 23.674C141.75 23.47 141.798 23.296 141.894 23.152C142.002 22.996 142.176 22.852 142.416 22.72C142.836 22.492 143.334 22.312 143.91 22.18C144.498 22.048 145.074 21.982 145.638 21.982ZM145.08 29.524C145.68 29.524 146.166 29.326 146.538 28.93C146.922 28.522 147.114 28 147.114 27.364V26.986H146.79C145.986 26.986 145.362 27.022 144.918 27.094C144.474 27.166 144.156 27.292 143.964 27.472C143.772 27.652 143.676 27.898 143.676 28.21C143.676 28.594 143.808 28.912 144.072 29.164C144.348 29.404 144.684 29.524 145.08 29.524ZM158.887 18.22C159.223 18.22 159.499 18.316 159.715 18.508C159.931 18.7 160.039 18.952 160.039 19.264V30.028C160.039 30.352 159.937 30.61 159.733 30.802C159.529 30.994 159.259 31.09 158.923 31.09C158.587 31.09 158.317 30.994 158.113 30.802C157.909 30.61 157.807 30.352 157.807 30.028V29.578C157.543 30.07 157.159 30.454 156.655 30.73C156.163 31.006 155.599 31.144 154.963 31.144C154.207 31.144 153.529 30.952 152.929 30.568C152.341 30.184 151.879 29.644 151.543 28.948C151.219 28.24 151.057 27.43 151.057 26.518C151.057 25.606 151.219 24.808 151.543 24.124C151.879 23.44 152.341 22.912 152.929 22.54C153.517 22.168 154.195 21.982 154.963 21.982C155.599 21.982 156.163 22.114 156.655 22.378C157.147 22.642 157.525 23.014 157.789 23.494V19.228C157.789 18.928 157.885 18.688 158.077 18.508C158.281 18.316 158.551 18.22 158.887 18.22ZM155.557 29.398C156.277 29.398 156.829 29.152 157.213 28.66C157.609 28.168 157.807 27.466 157.807 26.554C157.807 25.642 157.609 24.946 157.213 24.466C156.829 23.974 156.283 23.728 155.575 23.728C154.855 23.728 154.297 23.968 153.901 24.448C153.505 24.928 153.307 25.618 153.307 26.518C153.307 27.43 153.505 28.138 153.901 28.642C154.297 29.146 154.849 29.398 155.557 29.398ZM78.52 52.108C78.172 52.108 77.89 52 77.674 51.784C77.47 51.568 77.368 51.286 77.368 50.938V40.372C77.368 40.024 77.47 39.748 77.674 39.544C77.89 39.328 78.172 39.22 78.52 39.22C78.88 39.22 79.162 39.328 79.366 39.544C79.582 39.748 79.69 40.024 79.69 40.372V50.938C79.69 51.286 79.582 51.568 79.366 51.784C79.162 52 78.88 52.108 78.52 52.108ZM87.3445 42.982C88.4005 42.982 89.1865 43.282 89.7025 43.882C90.2185 44.482 90.4765 45.388 90.4765 46.6V51.028C90.4765 51.364 90.3745 51.628 90.1705 51.82C89.9785 52.012 89.7085 52.108 89.3605 52.108C89.0125 52.108 88.7365 52.012 88.5325 51.82C88.3285 51.628 88.2265 51.364 88.2265 51.028V46.726C88.2265 46.042 88.0945 45.544 87.8305 45.232C87.5785 44.92 87.1765 44.764 86.6245 44.764C85.9765 44.764 85.4545 44.968 85.0585 45.376C84.6745 45.784 84.4825 46.33 84.4825 47.014V51.028C84.4825 51.364 84.3805 51.628 84.1765 51.82C83.9725 52.012 83.6965 52.108 83.3485 52.108C83.0005 52.108 82.7245 52.012 82.5205 51.82C82.3285 51.628 82.2325 51.364 82.2325 51.028V44.062C82.2325 43.75 82.3345 43.498 82.5385 43.306C82.7425 43.114 83.0185 43.018 83.3665 43.018C83.6785 43.018 83.9305 43.114 84.1225 43.306C84.3265 43.486 84.4285 43.726 84.4285 44.026V44.512C84.7285 44.02 85.1305 43.642 85.6345 43.378C86.1385 43.114 86.7085 42.982 87.3445 42.982ZM98.9985 52.108C98.6505 52.108 98.3685 52 98.1525 51.784C97.9485 51.568 97.8465 51.286 97.8465 50.938V40.408C97.8465 40.06 97.9425 39.79 98.1345 39.598C98.3385 39.406 98.6145 39.31 98.9625 39.31H105.281C106.013 39.31 106.379 39.622 106.379 40.246C106.379 40.858 106.013 41.164 105.281 41.164H100.133V44.62H104.921C105.653 44.62 106.019 44.932 106.019 45.556C106.019 46.168 105.653 46.474 104.921 46.474H100.133V50.938C100.133 51.286 100.031 51.568 99.8265 51.784C99.6225 52 99.3465 52.108 98.9985 52.108ZM108.96 52.108C108.636 52.108 108.366 52.018 108.15 51.838C107.946 51.646 107.844 51.376 107.844 51.028V44.08C107.844 43.732 107.946 43.468 108.15 43.288C108.366 43.108 108.636 43.018 108.96 43.018C109.284 43.018 109.554 43.108 109.77 43.288C109.986 43.468 110.094 43.732 110.094 44.08V51.028C110.094 51.376 109.986 51.646 109.77 51.838C109.554 52.018 109.284 52.108 108.96 52.108ZM108.96 41.416C108.552 41.416 108.228 41.308 107.988 41.092C107.748 40.864 107.628 40.57 107.628 40.21C107.628 39.85 107.748 39.562 107.988 39.346C108.228 39.13 108.552 39.022 108.96 39.022C109.356 39.022 109.674 39.13 109.914 39.346C110.166 39.562 110.292 39.85 110.292 40.21C110.292 40.57 110.172 40.864 109.932 41.092C109.692 41.308 109.368 41.416 108.96 41.416ZM117.328 43.018C117.64 42.994 117.886 43.06 118.066 43.216C118.246 43.372 118.336 43.606 118.336 43.918C118.336 44.242 118.258 44.482 118.102 44.638C117.946 44.794 117.664 44.896 117.256 44.944L116.716 44.998C116.008 45.07 115.486 45.31 115.15 45.718C114.826 46.126 114.664 46.636 114.664 47.248V51.028C114.664 51.376 114.556 51.646 114.34 51.838C114.124 52.018 113.854 52.108 113.53 52.108C113.206 52.108 112.936 52.018 112.72 51.838C112.516 51.646 112.414 51.376 112.414 51.028V44.062C112.414 43.726 112.516 43.468 112.72 43.288C112.936 43.108 113.2 43.018 113.512 43.018C113.824 43.018 114.076 43.108 114.268 43.288C114.46 43.456 114.556 43.702 114.556 44.026V44.746C114.784 44.218 115.12 43.81 115.564 43.522C116.02 43.234 116.524 43.072 117.076 43.036L117.328 43.018ZM126.095 49.588C126.299 49.588 126.461 49.666 126.581 49.822C126.713 49.978 126.779 50.188 126.779 50.452C126.779 50.824 126.557 51.136 126.113 51.388C125.705 51.616 125.243 51.802 124.727 51.946C124.211 52.078 123.719 52.144 123.251 52.144C121.835 52.144 120.713 51.736 119.885 50.92C119.057 50.104 118.643 48.988 118.643 47.572C118.643 46.672 118.823 45.874 119.183 45.178C119.543 44.482 120.047 43.942 120.695 43.558C121.355 43.174 122.099 42.982 122.927 42.982C123.719 42.982 124.409 43.156 124.997 43.504C125.585 43.852 126.041 44.344 126.365 44.98C126.689 45.616 126.851 46.366 126.851 47.23C126.851 47.746 126.623 48.004 126.167 48.004H120.857C120.929 48.832 121.163 49.444 121.559 49.84C121.955 50.224 122.531 50.416 123.287 50.416C123.671 50.416 124.007 50.368 124.295 50.272C124.595 50.176 124.931 50.044 125.303 49.876C125.663 49.684 125.927 49.588 126.095 49.588ZM122.981 44.566C122.369 44.566 121.877 44.758 121.505 45.142C121.145 45.526 120.929 46.078 120.857 46.798H124.925C124.901 46.066 124.721 45.514 124.385 45.142C124.049 44.758 123.581 44.566 122.981 44.566ZM133.085 40.984C132.533 41.02 132.131 41.188 131.879 41.488C131.627 41.788 131.501 42.22 131.501 42.784V43.198H133.031C133.703 43.198 134.039 43.48 134.039 44.044C134.039 44.608 133.703 44.89 133.031 44.89H131.501V51.028C131.501 51.376 131.393 51.64 131.177 51.82C130.973 52 130.709 52.09 130.385 52.09C130.061 52.09 129.791 52 129.575 51.82C129.359 51.64 129.251 51.376 129.251 51.028V44.89H128.351C127.679 44.89 127.343 44.608 127.343 44.044C127.343 43.48 127.679 43.198 128.351 43.198H129.251V43.072C129.251 41.944 129.545 41.062 130.133 40.426C130.733 39.778 131.573 39.412 132.653 39.328L133.121 39.292C133.601 39.256 133.937 39.31 134.129 39.454C134.333 39.586 134.435 39.796 134.435 40.084C134.435 40.6 134.141 40.888 133.553 40.948L133.085 40.984ZM139.016 52.144C138.116 52.144 137.324 51.958 136.64 51.586C135.968 51.214 135.446 50.68 135.074 49.984C134.702 49.288 134.516 48.478 134.516 47.554C134.516 46.63 134.702 45.826 135.074 45.142C135.446 44.446 135.968 43.912 136.64 43.54C137.324 43.168 138.116 42.982 139.016 42.982C139.916 42.982 140.702 43.168 141.374 43.54C142.058 43.912 142.58 44.446 142.94 45.142C143.312 45.826 143.498 46.63 143.498 47.554C143.498 48.478 143.312 49.288 142.94 49.984C142.58 50.68 142.058 51.214 141.374 51.586C140.702 51.958 139.916 52.144 139.016 52.144ZM138.998 50.398C139.73 50.398 140.288 50.158 140.672 49.678C141.056 49.198 141.248 48.49 141.248 47.554C141.248 46.63 141.056 45.928 140.672 45.448C140.288 44.956 139.736 44.71 139.016 44.71C138.296 44.71 137.738 44.956 137.342 45.448C136.958 45.928 136.766 46.63 136.766 47.554C136.766 48.49 136.958 49.198 137.342 49.678C137.726 50.158 138.278 50.398 138.998 50.398ZM152.812 50.344C153.028 50.56 153.136 50.806 153.136 51.082C153.136 51.346 153.034 51.586 152.83 51.802C152.626 52.006 152.386 52.108 152.11 52.108C151.81 52.108 151.552 51.982 151.336 51.73L148.798 48.922L146.26 51.73C146.032 51.97 145.774 52.09 145.486 52.09C145.222 52.09 144.988 51.988 144.784 51.784C144.58 51.58 144.478 51.346 144.478 51.082C144.478 50.806 144.586 50.56 144.802 50.344L147.43 47.482L144.946 44.782C144.73 44.566 144.622 44.32 144.622 44.044C144.622 43.768 144.724 43.534 144.928 43.342C145.132 43.138 145.366 43.036 145.63 43.036C145.918 43.036 146.176 43.156 146.404 43.396L148.798 46.024L151.192 43.396C151.42 43.156 151.678 43.036 151.966 43.036C152.242 43.036 152.476 43.138 152.668 43.342C152.872 43.534 152.974 43.768 152.974 44.044C152.974 44.32 152.866 44.566 152.65 44.782L150.166 47.482L152.812 50.344Z" fill="#45BFEB"/>
<path fill-rule="evenodd" clip-rule="evenodd" d="M28.6712 38.1433C28.6712 38.1433 28.5905 36.1247 28.8446 34.8647C29.0935 33.603 29.4282 32.9335 29.4282 32.9335L28 34.4424C28 34.4424 28.2541 32.0083 29.0935 30.666C29.9312 29.3254 30.7689 28.4808 30.7689 28.4808C30.7689 28.4808 30.2659 25.1215 32.3653 23.1096C32.3653 23.1096 32.5335 24.0349 32.8752 24.8726C33.1773 25.6382 33.8073 26.0398 33.9137 26.1068C36.1196 22.4934 40.09 20.073 44.6355 20.073C47.8473 20.073 50.7654 21.2867 52.985 23.271C53.2459 23.3842 53.5068 23.4993 53.7694 23.6263C55.4585 24.4039 57.2215 26.5496 57.2215 26.5496L56.7185 24.2837C56.7185 24.2837 57.8051 25.3753 58.3081 27.0525C58.8179 28.7347 59.1475 31.8401 59.1475 31.8401L59.9045 30.163C59.9045 30.163 61.1644 40.5706 54.5333 46.2834C47.8953 51.9962 39.1646 50.7293 34.2965 46.1959C29.4282 41.6642 29.4282 36.5401 29.4282 36.5401L28.6712 38.1433ZM51.476 24.1361C49.605 22.6272 47.231 21.7226 44.6354 21.7226C41.1971 21.7226 38.1312 23.3172 36.1265 25.8047C37.1598 25.8853 37.4019 25.9661 37.4019 25.9661C37.4019 25.9661 38.3272 25.209 39.5871 24.7868C40.847 24.3695 41.5989 24.4503 41.5989 24.4503C41.5989 24.4503 40.4247 25.2965 40.09 25.8853C39.7553 26.4689 39.9218 27.1401 39.9218 27.1401C39.9218 27.1401 40.5123 28.0654 41.5182 28.4001C41.9223 28.5337 42.3519 28.5874 42.738 28.6358C43.3196 28.7086 43.8028 28.769 43.9524 29.0713C44.2064 29.5743 40.847 31.6719 40.847 31.6719L40.9277 34.1936C40.9277 34.1936 38.9159 33.4366 38.83 34.6966C38.7423 35.9565 40.09 37.8019 42.2751 37.2182C44.4552 36.6278 45.5487 36.3737 46.474 36.8767C47.3992 37.3865 47.9022 38.5589 47.3992 38.5589C46.8892 38.5589 46.3057 38.6396 45.1316 39.2301C44.932 39.3289 44.7252 39.4448 44.5085 39.5662C43.4448 40.1623 42.1405 40.8931 40.2581 40.4025C40.2581 40.4025 43.6174 43.5079 47.1433 42.4213C50.6709 41.3278 51.9257 38.5589 51.9257 38.5589L51.7644 40.739C51.7644 40.739 52.6828 39.9802 53.1051 38.1434C53.5274 36.293 53.2733 34.1936 53.2733 34.1936L54.3581 35.4553C54.3581 35.4553 54.7822 33.0143 54.7015 31.6719C54.6139 30.3314 54.1986 29.8283 54.1986 29.8283L55.371 30.7399C55.2045 29.7751 54.9023 28.8499 54.5007 27.9916C54.1916 27.5213 53.8157 27.0801 53.354 26.7179C51.5086 25.2965 49.0745 24.5379 49.0745 24.5379L51.476 24.1361Z" fill="#45BFEB"/>
<defs>
<filter id="filter0_d" x="0" y="0" width="190" height="78" filterUnits="userSpaceOnUse" color-interpolation-filters="sRGB">
<feFlood flood-opacity="0" result="BackgroundImageFix"/>
<feColorMatrix in="SourceAlpha" type="matrix" values="0 0 0 0 0 0 0 0 0 0 0 0 0 0 0 0 0 0 127 0"/>
<feOffset dy="3"/>
<feGaussianBlur stdDeviation="5"/>
<feColorMatrix type="matrix" values="0 0 0 0 0.282353 0 0 0 0 0.698039 0 0 0 0 0.894118 0 0 0 0.204993 0"/>
<feBlend mode="normal" in2="BackgroundImageFix" result="effect1_dropShadow"/>
<feBlend mode="normal" in="SourceGraphic" in2="effect1_dropShadow" result="shape"/>
</filter>
</defs>
</svg>
