<svg width="190" height="78" viewBox="0 0 190 78" fill="none" xmlns="http://www.w3.org/2000/svg">
<g filter="url(#filter0_d)">
<rect x="10.5" y="7.5" width="169" height="57" rx="3.5" stroke="#45BFEB"/>
</g>
<path d="M78.484 32C78.136 32 77.86 31.904 77.656 31.712C77.464 31.52 77.368 31.25 77.368 30.902V20.408C77.368 20.06 77.464 19.79 77.656 19.598C77.86 19.406 78.136 19.31 78.484 19.31H82.048C84.124 19.31 85.732 19.868 86.872 20.984C88.024 22.088 88.6 23.642 88.6 25.646C88.6 27.662 88.024 29.228 86.872 30.344C85.732 31.448 84.124 32 82.048 32H78.484ZM81.904 30.11C84.82 30.11 86.278 28.622 86.278 25.646C86.278 22.682 84.82 21.2 81.904 21.2H79.69V30.11H81.904ZM94.7543 32.144C93.8543 32.144 93.0623 31.958 92.3783 31.586C91.7063 31.214 91.1843 30.68 90.8123 29.984C90.4403 29.288 90.2543 28.478 90.2543 27.554C90.2543 26.63 90.4403 25.826 90.8123 25.142C91.1843 24.446 91.7063 23.912 92.3783 23.54C93.0623 23.168 93.8543 22.982 94.7543 22.982C95.6543 22.982 96.4403 23.168 97.1123 23.54C97.7963 23.912 98.3183 24.446 98.6783 25.142C99.0503 25.826 99.2363 26.63 99.2363 27.554C99.2363 28.478 99.0503 29.288 98.6783 29.984C98.3183 30.68 97.7963 31.214 97.1123 31.586C96.4403 31.958 95.6543 32.144 94.7543 32.144ZM94.7363 30.398C95.4683 30.398 96.0263 30.158 96.4103 29.678C96.7943 29.198 96.9863 28.49 96.9863 27.554C96.9863 26.63 96.7943 25.928 96.4103 25.448C96.0263 24.956 95.4743 24.71 94.7543 24.71C94.0343 24.71 93.4763 24.956 93.0803 25.448C92.6963 25.928 92.5043 26.63 92.5043 27.554C92.5043 28.49 92.6963 29.198 93.0803 29.678C93.4643 30.158 94.0163 30.398 94.7363 30.398ZM112.851 23.684C112.935 23.468 113.055 23.306 113.211 23.198C113.379 23.09 113.559 23.036 113.751 23.036C114.027 23.036 114.273 23.132 114.489 23.324C114.717 23.504 114.831 23.732 114.831 24.008C114.831 24.164 114.801 24.302 114.741 24.422L111.771 31.388C111.675 31.616 111.525 31.79 111.321 31.91C111.129 32.03 110.913 32.09 110.673 32.09C110.445 32.09 110.229 32.03 110.025 31.91C109.833 31.79 109.689 31.616 109.593 31.388L107.451 26.24L105.381 31.388C105.285 31.616 105.135 31.79 104.931 31.91C104.739 32.03 104.523 32.09 104.283 32.09C104.055 32.09 103.839 32.03 103.635 31.91C103.431 31.79 103.281 31.616 103.185 31.388L100.233 24.422C100.173 24.266 100.143 24.134 100.143 24.026C100.143 23.75 100.263 23.516 100.503 23.324C100.743 23.12 101.007 23.018 101.295 23.018C101.499 23.018 101.685 23.072 101.853 23.18C102.021 23.288 102.147 23.45 102.231 23.666L104.355 29.156L106.533 23.72C106.629 23.492 106.767 23.324 106.947 23.216C107.127 23.096 107.325 23.036 107.541 23.036C107.757 23.036 107.955 23.096 108.135 23.216C108.315 23.324 108.453 23.492 108.549 23.72L110.745 29.174L112.851 23.684ZM121.481 22.982C122.537 22.982 123.323 23.282 123.839 23.882C124.355 24.482 124.613 25.388 124.613 26.6V31.028C124.613 31.364 124.511 31.628 124.307 31.82C124.115 32.012 123.845 32.108 123.497 32.108C123.149 32.108 122.873 32.012 122.669 31.82C122.465 31.628 122.363 31.364 122.363 31.028V26.726C122.363 26.042 122.231 25.544 121.967 25.232C121.715 24.92 121.313 24.764 120.761 24.764C120.113 24.764 119.591 24.968 119.195 25.376C118.811 25.784 118.619 26.33 118.619 27.014V31.028C118.619 31.364 118.517 31.628 118.313 31.82C118.109 32.012 117.833 32.108 117.485 32.108C117.137 32.108 116.861 32.012 116.657 31.82C116.465 31.628 116.369 31.364 116.369 31.028V24.062C116.369 23.75 116.471 23.498 116.675 23.306C116.879 23.114 117.155 23.018 117.503 23.018C117.815 23.018 118.067 23.114 118.259 23.306C118.463 23.486 118.565 23.726 118.565 24.026V24.512C118.865 24.02 119.267 23.642 119.771 23.378C120.275 23.114 120.845 22.982 121.481 22.982ZM128.015 32.108C127.691 32.108 127.421 32.018 127.205 31.838C127.001 31.646 126.899 31.376 126.899 31.028V20.282C126.899 19.934 127.001 19.67 127.205 19.49C127.421 19.31 127.691 19.22 128.015 19.22C128.339 19.22 128.609 19.31 128.825 19.49C129.041 19.67 129.149 19.934 129.149 20.282V31.028C129.149 31.376 129.041 31.646 128.825 31.838C128.609 32.018 128.339 32.108 128.015 32.108ZM135.483 32.144C134.583 32.144 133.791 31.958 133.107 31.586C132.435 31.214 131.913 30.68 131.541 29.984C131.169 29.288 130.983 28.478 130.983 27.554C130.983 26.63 131.169 25.826 131.541 25.142C131.913 24.446 132.435 23.912 133.107 23.54C133.791 23.168 134.583 22.982 135.483 22.982C136.383 22.982 137.169 23.168 137.841 23.54C138.525 23.912 139.047 24.446 139.407 25.142C139.779 25.826 139.965 26.63 139.965 27.554C139.965 28.478 139.779 29.288 139.407 29.984C139.047 30.68 138.525 31.214 137.841 31.586C137.169 31.958 136.383 32.144 135.483 32.144ZM135.465 30.398C136.197 30.398 136.755 30.158 137.139 29.678C137.523 29.198 137.715 28.49 137.715 27.554C137.715 26.63 137.523 25.928 137.139 25.448C136.755 24.956 136.203 24.71 135.483 24.71C134.763 24.71 134.205 24.956 133.809 25.448C133.425 25.928 133.233 26.63 133.233 27.554C133.233 28.49 133.425 29.198 133.809 29.678C134.193 30.158 134.745 30.398 135.465 30.398ZM145.638 22.982C146.862 22.982 147.768 23.288 148.356 23.9C148.956 24.5 149.256 25.418 149.256 26.654V31.046C149.256 31.37 149.16 31.628 148.968 31.82C148.776 32 148.512 32.09 148.176 32.09C147.864 32.09 147.606 31.994 147.402 31.802C147.21 31.61 147.114 31.358 147.114 31.046V30.65C146.91 31.118 146.586 31.484 146.142 31.748C145.71 32.012 145.206 32.144 144.63 32.144C144.042 32.144 143.508 32.024 143.028 31.784C142.548 31.544 142.17 31.214 141.894 30.794C141.618 30.374 141.48 29.906 141.48 29.39C141.48 28.742 141.642 28.232 141.966 27.86C142.302 27.488 142.842 27.218 143.586 27.05C144.33 26.882 145.356 26.798 146.664 26.798H147.114V26.384C147.114 25.796 146.988 25.37 146.736 25.106C146.484 24.83 146.076 24.692 145.512 24.692C145.164 24.692 144.81 24.746 144.45 24.854C144.09 24.95 143.664 25.094 143.172 25.286C142.86 25.442 142.632 25.52 142.488 25.52C142.272 25.52 142.092 25.442 141.948 25.286C141.816 25.13 141.75 24.926 141.75 24.674C141.75 24.47 141.798 24.296 141.894 24.152C142.002 23.996 142.176 23.852 142.416 23.72C142.836 23.492 143.334 23.312 143.91 23.18C144.498 23.048 145.074 22.982 145.638 22.982ZM145.08 30.524C145.68 30.524 146.166 30.326 146.538 29.93C146.922 29.522 147.114 29 147.114 28.364V27.986H146.79C145.986 27.986 145.362 28.022 144.918 28.094C144.474 28.166 144.156 28.292 143.964 28.472C143.772 28.652 143.676 28.898 143.676 29.21C143.676 29.594 143.808 29.912 144.072 30.164C144.348 30.404 144.684 30.524 145.08 30.524ZM158.887 19.22C159.223 19.22 159.499 19.316 159.715 19.508C159.931 19.7 160.039 19.952 160.039 20.264V31.028C160.039 31.352 159.937 31.61 159.733 31.802C159.529 31.994 159.259 32.09 158.923 32.09C158.587 32.09 158.317 31.994 158.113 31.802C157.909 31.61 157.807 31.352 157.807 31.028V30.578C157.543 31.07 157.159 31.454 156.655 31.73C156.163 32.006 155.599 32.144 154.963 32.144C154.207 32.144 153.529 31.952 152.929 31.568C152.341 31.184 151.879 30.644 151.543 29.948C151.219 29.24 151.057 28.43 151.057 27.518C151.057 26.606 151.219 25.808 151.543 25.124C151.879 24.44 152.341 23.912 152.929 23.54C153.517 23.168 154.195 22.982 154.963 22.982C155.599 22.982 156.163 23.114 156.655 23.378C157.147 23.642 157.525 24.014 157.789 24.494V20.228C157.789 19.928 157.885 19.688 158.077 19.508C158.281 19.316 158.551 19.22 158.887 19.22ZM155.557 30.398C156.277 30.398 156.829 30.152 157.213 29.66C157.609 29.168 157.807 28.466 157.807 27.554C157.807 26.642 157.609 25.946 157.213 25.466C156.829 24.974 156.283 24.728 155.575 24.728C154.855 24.728 154.297 24.968 153.901 25.448C153.505 25.928 153.307 26.618 153.307 27.518C153.307 28.43 153.505 29.138 153.901 29.642C154.297 30.146 154.849 30.398 155.557 30.398ZM78.52 53.108C78.172 53.108 77.89 53 77.674 52.784C77.47 52.568 77.368 52.286 77.368 51.938V41.372C77.368 41.024 77.47 40.748 77.674 40.544C77.89 40.328 78.172 40.22 78.52 40.22C78.88 40.22 79.162 40.328 79.366 40.544C79.582 40.748 79.69 41.024 79.69 41.372V51.938C79.69 52.286 79.582 52.568 79.366 52.784C79.162 53 78.88 53.108 78.52 53.108ZM87.3445 43.982C88.4005 43.982 89.1865 44.282 89.7025 44.882C90.2185 45.482 90.4765 46.388 90.4765 47.6V52.028C90.4765 52.364 90.3745 52.628 90.1705 52.82C89.9785 53.012 89.7085 53.108 89.3605 53.108C89.0125 53.108 88.7365 53.012 88.5325 52.82C88.3285 52.628 88.2265 52.364 88.2265 52.028V47.726C88.2265 47.042 88.0945 46.544 87.8305 46.232C87.5785 45.92 87.1765 45.764 86.6245 45.764C85.9765 45.764 85.4545 45.968 85.0585 46.376C84.6745 46.784 84.4825 47.33 84.4825 48.014V52.028C84.4825 52.364 84.3805 52.628 84.1765 52.82C83.9725 53.012 83.6965 53.108 83.3485 53.108C83.0005 53.108 82.7245 53.012 82.5205 52.82C82.3285 52.628 82.2325 52.364 82.2325 52.028V45.062C82.2325 44.75 82.3345 44.498 82.5385 44.306C82.7425 44.114 83.0185 44.018 83.3665 44.018C83.6785 44.018 83.9305 44.114 84.1225 44.306C84.3265 44.486 84.4285 44.726 84.4285 45.026V45.512C84.7285 45.02 85.1305 44.642 85.6345 44.378C86.1385 44.114 86.7085 43.982 87.3445 43.982ZM105.659 46.448C106.391 46.652 106.955 47.024 107.351 47.564C107.759 48.104 107.963 48.764 107.963 49.544C107.963 50.624 107.573 51.47 106.793 52.082C106.025 52.694 104.963 53 103.607 53H98.9625C98.6145 53 98.3385 52.904 98.1345 52.712C97.9425 52.52 97.8465 52.25 97.8465 51.902V41.408C97.8465 41.06 97.9425 40.79 98.1345 40.598C98.3385 40.406 98.6145 40.31 98.9625 40.31H103.427C104.747 40.31 105.779 40.604 106.523 41.192C107.279 41.768 107.657 42.578 107.657 43.622C107.657 44.294 107.477 44.876 107.117 45.368C106.769 45.86 106.283 46.22 105.659 46.448ZM100.115 45.656H103.049C104.645 45.656 105.443 45.062 105.443 43.874C105.443 43.274 105.245 42.83 104.849 42.542C104.453 42.254 103.853 42.11 103.049 42.11H100.115V45.656ZM103.355 51.2C104.195 51.2 104.807 51.05 105.191 50.75C105.575 50.45 105.767 49.982 105.767 49.346C105.767 48.71 105.569 48.236 105.173 47.924C104.789 47.612 104.183 47.456 103.355 47.456H100.115V51.2H103.355ZM114.85 44.018C115.162 43.994 115.408 44.06 115.588 44.216C115.768 44.372 115.858 44.606 115.858 44.918C115.858 45.242 115.78 45.482 115.624 45.638C115.468 45.794 115.186 45.896 114.778 45.944L114.238 45.998C113.53 46.07 113.008 46.31 112.672 46.718C112.348 47.126 112.186 47.636 112.186 48.248V52.028C112.186 52.376 112.078 52.646 111.862 52.838C111.646 53.018 111.376 53.108 111.052 53.108C110.728 53.108 110.458 53.018 110.242 52.838C110.038 52.646 109.936 52.376 109.936 52.028V45.062C109.936 44.726 110.038 44.468 110.242 44.288C110.458 44.108 110.722 44.018 111.034 44.018C111.346 44.018 111.598 44.108 111.79 44.288C111.982 44.456 112.078 44.702 112.078 45.026V45.746C112.306 45.218 112.642 44.81 113.086 44.522C113.542 44.234 114.046 44.072 114.598 44.036L114.85 44.018ZM120.607 43.982C121.831 43.982 122.737 44.288 123.325 44.9C123.925 45.5 124.225 46.418 124.225 47.654V52.046C124.225 52.37 124.129 52.628 123.937 52.82C123.745 53 123.481 53.09 123.145 53.09C122.833 53.09 122.575 52.994 122.371 52.802C122.179 52.61 122.083 52.358 122.083 52.046V51.65C121.879 52.118 121.555 52.484 121.111 52.748C120.679 53.012 120.175 53.144 119.599 53.144C119.011 53.144 118.477 53.024 117.997 52.784C117.517 52.544 117.139 52.214 116.863 51.794C116.587 51.374 116.449 50.906 116.449 50.39C116.449 49.742 116.611 49.232 116.935 48.86C117.271 48.488 117.811 48.218 118.555 48.05C119.299 47.882 120.325 47.798 121.633 47.798H122.083V47.384C122.083 46.796 121.957 46.37 121.705 46.106C121.453 45.83 121.045 45.692 120.481 45.692C120.133 45.692 119.779 45.746 119.419 45.854C119.059 45.95 118.633 46.094 118.141 46.286C117.829 46.442 117.601 46.52 117.457 46.52C117.241 46.52 117.061 46.442 116.917 46.286C116.785 46.13 116.719 45.926 116.719 45.674C116.719 45.47 116.767 45.296 116.863 45.152C116.971 44.996 117.145 44.852 117.385 44.72C117.805 44.492 118.303 44.312 118.879 44.18C119.467 44.048 120.043 43.982 120.607 43.982ZM120.049 51.524C120.649 51.524 121.135 51.326 121.507 50.93C121.891 50.522 122.083 50 122.083 49.364V48.986H121.759C120.955 48.986 120.331 49.022 119.887 49.094C119.443 49.166 119.125 49.292 118.933 49.472C118.741 49.652 118.645 49.898 118.645 50.21C118.645 50.594 118.777 50.912 119.041 51.164C119.317 51.404 119.653 51.524 120.049 51.524ZM132.65 44.666C132.746 44.45 132.872 44.288 133.028 44.18C133.196 44.072 133.376 44.018 133.568 44.018C133.844 44.018 134.09 44.114 134.306 44.306C134.534 44.486 134.648 44.714 134.648 44.99C134.648 45.134 134.612 45.278 134.54 45.422L131.21 52.388C131.102 52.616 130.946 52.79 130.742 52.91C130.55 53.03 130.334 53.09 130.094 53.09C129.866 53.09 129.644 53.03 129.428 52.91C129.224 52.79 129.068 52.616 128.96 52.388L125.612 45.422C125.552 45.302 125.522 45.164 125.522 45.008C125.522 44.732 125.636 44.498 125.864 44.306C126.104 44.114 126.374 44.018 126.674 44.018C127.106 44.018 127.424 44.228 127.628 44.648L130.148 50.21L132.65 44.666ZM142.812 50.588C143.016 50.588 143.178 50.666 143.298 50.822C143.43 50.978 143.496 51.188 143.496 51.452C143.496 51.824 143.274 52.136 142.83 52.388C142.422 52.616 141.96 52.802 141.444 52.946C140.928 53.078 140.436 53.144 139.968 53.144C138.552 53.144 137.43 52.736 136.602 51.92C135.774 51.104 135.36 49.988 135.36 48.572C135.36 47.672 135.54 46.874 135.9 46.178C136.26 45.482 136.764 44.942 137.412 44.558C138.072 44.174 138.816 43.982 139.644 43.982C140.436 43.982 141.126 44.156 141.714 44.504C142.302 44.852 142.758 45.344 143.082 45.98C143.406 46.616 143.568 47.366 143.568 48.23C143.568 48.746 143.34 49.004 142.884 49.004H137.574C137.646 49.832 137.88 50.444 138.276 50.84C138.672 51.224 139.248 51.416 140.004 51.416C140.388 51.416 140.724 51.368 141.012 51.272C141.312 51.176 141.648 51.044 142.02 50.876C142.38 50.684 142.644 50.588 142.812 50.588ZM139.698 45.566C139.086 45.566 138.594 45.758 138.222 46.142C137.862 46.526 137.646 47.078 137.574 47.798H141.642C141.618 47.066 141.438 46.514 141.102 46.142C140.766 45.758 140.298 45.566 139.698 45.566Z" fill="#45BFEB"/>
<path fill-rule="evenodd" clip-rule="evenodd" d="M60 30.9359L58.8375 27.8505L59.6375 26.0804C59.7375 25.8468 59.6875 25.5887 59.5125 25.4043L57.325 23.2286C56.3625 22.2821 54.9375 21.9502 53.65 22.3927L53.0375 22.6017L49.6875 19.0369L44.025 19H43.9875L38.2875 19.0492L34.95 22.6385L34.35 22.4296C33.05 21.9748 31.6125 22.3066 30.65 23.2777L28.425 25.4904C28.275 25.6379 28.2375 25.8468 28.3125 26.0312L29.15 27.8751L28 30.9605L28.75 33.7508L32.15 46.4488C32.5375 47.9116 33.4375 49.19 34.7 50.0751C34.7 50.0751 38.825 52.9392 42.8875 55.5329C43.25 55.7664 43.625 55.9262 44.025 55.9262C44.425 55.9262 44.8 55.7664 45.1625 55.5329C49.7375 52.5827 53.35 50.0628 53.35 50.0628C54.6 49.1777 55.5 47.8993 55.8875 46.4365L59.2625 33.7385L60 30.9359Z" fill="#45BFEB"/>
<path fill-rule="evenodd" clip-rule="evenodd" d="M44.7499 41.7165C44.5999 41.655 44.4374 41.6058 44.3874 41.6058H44.1874H43.9874C43.9374 41.6058 43.7749 41.655 43.6249 41.7165L41.9999 42.3803C41.8499 42.4417 41.5999 42.5523 41.4499 42.6261L38.9999 43.8799C38.8499 43.9537 38.8374 44.0889 38.9749 44.1872L41.1374 45.6869C41.2749 45.7852 41.4874 45.945 41.6124 46.0557L42.5749 46.867C42.6999 46.9776 42.8999 47.1497 43.0249 47.2603L43.9499 48.0716C44.0749 48.1822 44.2749 48.1822 44.3999 48.0716L45.3499 47.2603C45.4749 47.1497 45.6749 46.9776 45.7999 46.867L46.7624 46.0434C46.8874 45.9327 47.0999 45.7729 47.2374 45.6746L49.3999 44.1626C49.5374 44.0643 49.5249 43.9291 49.3749 43.8553L46.9249 42.6261C46.7749 42.5523 46.5249 42.4417 46.3749 42.3803L44.7499 41.7165Z" fill="white"/>
<path fill-rule="evenodd" clip-rule="evenodd" d="M56.4767 31.4838C56.5267 31.324 56.5267 31.2625 56.5267 31.2625C56.5267 31.1027 56.5142 30.8323 56.4892 30.6725L56.3642 30.316C56.2892 30.1685 56.1642 29.935 56.0642 29.7997L54.6517 27.7469C54.5642 27.6117 54.4017 27.4027 54.2892 27.2675L52.4642 25.018C52.3642 24.8951 52.2642 24.7845 52.2517 24.7968H52.2267C52.2267 24.7968 52.0892 24.8213 51.9267 24.8459L49.1392 25.3868C48.9767 25.4237 48.7142 25.4728 48.5517 25.4974L48.5017 25.5097C48.3392 25.5343 48.0767 25.522 47.9142 25.4728L45.5767 24.7353C45.4142 24.6861 45.1517 24.6124 45.0017 24.5755C45.0017 24.5755 44.5267 24.4649 44.1392 24.4771C43.7517 24.4771 43.2767 24.5755 43.2767 24.5755C43.1142 24.6124 42.8517 24.6861 42.7017 24.7353L40.3642 25.4728C40.2017 25.522 39.9392 25.5343 39.7767 25.5097L39.7267 25.4974C39.5642 25.4728 39.3017 25.4114 39.1392 25.3868L36.3267 24.8705C36.1642 24.8336 36.0267 24.8213 36.0267 24.8213H36.0017C35.9892 24.8213 35.8892 24.9197 35.7892 25.0426L33.9642 27.2921C33.8642 27.415 33.7017 27.6363 33.6017 27.7715L32.1892 29.8243C32.1017 29.9595 31.9642 30.1931 31.8892 30.3406L31.7642 30.6971C31.7392 30.8569 31.7142 31.1273 31.7267 31.2871C31.7267 31.2871 31.7267 31.3363 31.7767 31.5084C31.8642 31.8034 32.0767 32.0738 32.0767 32.0738C32.1767 32.1968 32.3642 32.4057 32.4767 32.5164L36.6142 36.8433C36.7267 36.9662 36.7642 37.1874 36.7017 37.335L35.8392 39.3386C35.7767 39.4861 35.7642 39.732 35.8267 39.8918L36.0642 40.5187C36.2642 41.0473 36.6017 41.5144 37.0517 41.8708L37.8892 42.5346C38.0142 42.633 38.2392 42.6698 38.3892 42.5961L41.0392 41.3546C41.1892 41.2808 41.4142 41.1333 41.5392 41.0227L43.4392 39.3386C43.7142 39.0928 43.7267 38.6748 43.4767 38.4044L39.4892 35.7615C39.3517 35.6755 39.3017 35.4788 39.3767 35.3313L41.1267 32.0861C41.2017 31.9386 41.2142 31.7051 41.1517 31.5575L40.9392 31.0781C40.8767 30.9306 40.6892 30.7585 40.5392 30.6971L35.4017 28.8041C35.2517 28.7426 35.2517 28.6811 35.4142 28.6688L38.7267 28.3615C38.8892 28.3492 39.1517 28.3738 39.3142 28.4107L42.2642 29.222C42.4267 29.2712 42.5267 29.431 42.5017 29.5908L41.4767 35.11C41.4517 35.2698 41.4517 35.4911 41.4892 35.614C41.5267 35.737 41.6892 35.8476 41.8517 35.8845L43.9017 36.3147C44.0642 36.3516 44.3267 36.3516 44.4892 36.3147L46.4017 35.8845C46.5642 35.8476 46.7267 35.7247 46.7642 35.614C46.8017 35.5034 46.8142 35.2698 46.7767 35.11L45.7642 29.5908C45.7392 29.431 45.8392 29.2589 46.0017 29.222L48.9517 28.4107C49.1142 28.3615 49.3767 28.3492 49.5392 28.3615L52.8517 28.6688C53.0142 28.6811 53.0267 28.7426 52.8642 28.8041L47.7267 30.7217C47.5767 30.7831 47.3892 30.9429 47.3267 31.1027L47.1142 31.5821C47.0517 31.7296 47.0517 31.9755 47.1392 32.1107L48.9017 35.3559C48.9767 35.5034 48.9267 35.6878 48.7892 35.7861L44.8017 38.4413C44.5392 38.6994 44.5642 39.1296 44.8392 39.3755L46.7392 41.0595C46.8642 41.1702 47.0892 41.3177 47.2392 41.3791L49.9017 42.6207C50.0517 42.6944 50.2767 42.6575 50.4017 42.5592L51.2392 41.8831C51.6892 41.5267 52.0267 41.0595 52.2142 40.531L52.4517 39.9041C52.5142 39.7566 52.5017 39.4984 52.4392 39.3509L51.5767 37.3472C51.5142 37.1997 51.5517 36.9785 51.6642 36.8556L55.8017 32.5286C55.9142 32.4057 56.0892 32.209 56.2017 32.0861C56.1767 32.0492 56.4017 31.7788 56.4767 31.4838Z" fill="white"/>
<defs>
<filter id="filter0_d" x="0" y="0" width="190" height="78" filterUnits="userSpaceOnUse" color-interpolation-filters="sRGB">
<feFlood flood-opacity="0" result="BackgroundImageFix"/>
<feColorMatrix in="SourceAlpha" type="matrix" values="0 0 0 0 0 0 0 0 0 0 0 0 0 0 0 0 0 0 127 0"/>
<feOffset dy="3"/>
<feGaussianBlur stdDeviation="5"/>
<feColorMatrix type="matrix" values="0 0 0 0 0.282353 0 0 0 0 0.698039 0 0 0 0 0.894118 0 0 0 0.204993 0"/>
<feBlend mode="normal" in2="BackgroundImageFix" result="effect1_dropShadow"/>
<feBlend mode="normal" in="SourceGraphic" in2="effect1_dropShadow" result="shape"/>
</filter>
</defs>
</svg>
