<svg width="190" height="78" viewBox="0 0 190 78" fill="none" xmlns="http://www.w3.org/2000/svg">
<g filter="url(#filter0_d)">
<rect x="10.5" y="7.5" width="169" height="57" rx="3.5" stroke="#45BFEB"/>
</g>
<path d="M76.9488 31C76.6008 31 76.3248 30.904 76.1208 30.712C75.9288 30.52 75.8328 30.25 75.8328 29.902V19.408C75.8328 19.06 75.9288 18.79 76.1208 18.598C76.3248 18.406 76.6008 18.31 76.9488 18.31H80.5128C82.5888 18.31 84.1968 18.868 85.3368 19.984C86.4888 21.088 87.0648 22.642 87.0648 24.646C87.0648 26.662 86.4888 28.228 85.3368 29.344C84.1968 30.448 82.5888 31 80.5128 31H76.9488ZM80.3688 29.11C83.2848 29.11 84.7428 27.622 84.7428 24.646C84.7428 21.682 83.2848 20.2 80.3688 20.2H78.1548V29.11H80.3688ZM93.2192 31.144C92.3192 31.144 91.5272 30.958 90.8432 30.586C90.1712 30.214 89.6492 29.68 89.2772 28.984C88.9052 28.288 88.7192 27.478 88.7192 26.554C88.7192 25.63 88.9052 24.826 89.2772 24.142C89.6492 23.446 90.1712 22.912 90.8432 22.54C91.5272 22.168 92.3192 21.982 93.2192 21.982C94.1192 21.982 94.9052 22.168 95.5772 22.54C96.2612 22.912 96.7832 23.446 97.1432 24.142C97.5152 24.826 97.7012 25.63 97.7012 26.554C97.7012 27.478 97.5152 28.288 97.1432 28.984C96.7832 29.68 96.2612 30.214 95.5772 30.586C94.9052 30.958 94.1192 31.144 93.2192 31.144ZM93.2012 29.398C93.9332 29.398 94.4912 29.158 94.8752 28.678C95.2592 28.198 95.4512 27.49 95.4512 26.554C95.4512 25.63 95.2592 24.928 94.8752 24.448C94.4912 23.956 93.9392 23.71 93.2192 23.71C92.4992 23.71 91.9412 23.956 91.5452 24.448C91.1612 24.928 90.9692 25.63 90.9692 26.554C90.9692 27.49 91.1612 28.198 91.5452 28.678C91.9292 29.158 92.4812 29.398 93.2012 29.398ZM111.316 22.684C111.4 22.468 111.52 22.306 111.676 22.198C111.844 22.09 112.024 22.036 112.216 22.036C112.492 22.036 112.738 22.132 112.954 22.324C113.182 22.504 113.296 22.732 113.296 23.008C113.296 23.164 113.266 23.302 113.206 23.422L110.236 30.388C110.14 30.616 109.99 30.79 109.786 30.91C109.594 31.03 109.378 31.09 109.138 31.09C108.91 31.09 108.694 31.03 108.49 30.91C108.298 30.79 108.154 30.616 108.058 30.388L105.916 25.24L103.846 30.388C103.75 30.616 103.6 30.79 103.396 30.91C103.204 31.03 102.988 31.09 102.748 31.09C102.52 31.09 102.304 31.03 102.1 30.91C101.896 30.79 101.746 30.616 101.65 30.388L98.698 23.422C98.638 23.266 98.608 23.134 98.608 23.026C98.608 22.75 98.728 22.516 98.968 22.324C99.208 22.12 99.472 22.018 99.76 22.018C99.964 22.018 100.15 22.072 100.318 22.18C100.486 22.288 100.612 22.45 100.696 22.666L102.82 28.156L104.998 22.72C105.094 22.492 105.232 22.324 105.412 22.216C105.592 22.096 105.79 22.036 106.006 22.036C106.222 22.036 106.42 22.096 106.6 22.216C106.78 22.324 106.918 22.492 107.014 22.72L109.21 28.174L111.316 22.684ZM119.946 21.982C121.002 21.982 121.788 22.282 122.304 22.882C122.82 23.482 123.078 24.388 123.078 25.6V30.028C123.078 30.364 122.976 30.628 122.772 30.82C122.58 31.012 122.31 31.108 121.962 31.108C121.614 31.108 121.338 31.012 121.134 30.82C120.93 30.628 120.828 30.364 120.828 30.028V25.726C120.828 25.042 120.696 24.544 120.432 24.232C120.18 23.92 119.778 23.764 119.226 23.764C118.578 23.764 118.056 23.968 117.66 24.376C117.276 24.784 117.084 25.33 117.084 26.014V30.028C117.084 30.364 116.982 30.628 116.778 30.82C116.574 31.012 116.298 31.108 115.95 31.108C115.602 31.108 115.326 31.012 115.122 30.82C114.93 30.628 114.834 30.364 114.834 30.028V23.062C114.834 22.75 114.936 22.498 115.14 22.306C115.344 22.114 115.62 22.018 115.968 22.018C116.28 22.018 116.532 22.114 116.724 22.306C116.928 22.486 117.03 22.726 117.03 23.026V23.512C117.33 23.02 117.732 22.642 118.236 22.378C118.74 22.114 119.31 21.982 119.946 21.982ZM126.479 31.108C126.155 31.108 125.885 31.018 125.669 30.838C125.465 30.646 125.363 30.376 125.363 30.028V19.282C125.363 18.934 125.465 18.67 125.669 18.49C125.885 18.31 126.155 18.22 126.479 18.22C126.803 18.22 127.073 18.31 127.289 18.49C127.505 18.67 127.613 18.934 127.613 19.282V30.028C127.613 30.376 127.505 30.646 127.289 30.838C127.073 31.018 126.803 31.108 126.479 31.108ZM133.948 31.144C133.048 31.144 132.256 30.958 131.572 30.586C130.9 30.214 130.378 29.68 130.006 28.984C129.634 28.288 129.448 27.478 129.448 26.554C129.448 25.63 129.634 24.826 130.006 24.142C130.378 23.446 130.9 22.912 131.572 22.54C132.256 22.168 133.048 21.982 133.948 21.982C134.848 21.982 135.634 22.168 136.306 22.54C136.99 22.912 137.512 23.446 137.872 24.142C138.244 24.826 138.43 25.63 138.43 26.554C138.43 27.478 138.244 28.288 137.872 28.984C137.512 29.68 136.99 30.214 136.306 30.586C135.634 30.958 134.848 31.144 133.948 31.144ZM133.93 29.398C134.662 29.398 135.22 29.158 135.604 28.678C135.988 28.198 136.18 27.49 136.18 26.554C136.18 25.63 135.988 24.928 135.604 24.448C135.22 23.956 134.668 23.71 133.948 23.71C133.228 23.71 132.67 23.956 132.274 24.448C131.89 24.928 131.698 25.63 131.698 26.554C131.698 27.49 131.89 28.198 132.274 28.678C132.658 29.158 133.21 29.398 133.93 29.398ZM144.103 21.982C145.327 21.982 146.233 22.288 146.821 22.9C147.421 23.5 147.721 24.418 147.721 25.654V30.046C147.721 30.37 147.625 30.628 147.433 30.82C147.241 31 146.977 31.09 146.641 31.09C146.329 31.09 146.071 30.994 145.867 30.802C145.675 30.61 145.579 30.358 145.579 30.046V29.65C145.375 30.118 145.051 30.484 144.607 30.748C144.175 31.012 143.671 31.144 143.095 31.144C142.507 31.144 141.973 31.024 141.493 30.784C141.013 30.544 140.635 30.214 140.359 29.794C140.083 29.374 139.945 28.906 139.945 28.39C139.945 27.742 140.107 27.232 140.431 26.86C140.767 26.488 141.307 26.218 142.051 26.05C142.795 25.882 143.821 25.798 145.129 25.798H145.579V25.384C145.579 24.796 145.453 24.37 145.201 24.106C144.949 23.83 144.541 23.692 143.977 23.692C143.629 23.692 143.275 23.746 142.915 23.854C142.555 23.95 142.129 24.094 141.637 24.286C141.325 24.442 141.097 24.52 140.953 24.52C140.737 24.52 140.557 24.442 140.413 24.286C140.281 24.13 140.215 23.926 140.215 23.674C140.215 23.47 140.263 23.296 140.359 23.152C140.467 22.996 140.641 22.852 140.881 22.72C141.301 22.492 141.799 22.312 142.375 22.18C142.963 22.048 143.539 21.982 144.103 21.982ZM143.545 29.524C144.145 29.524 144.631 29.326 145.003 28.93C145.387 28.522 145.579 28 145.579 27.364V26.986H145.255C144.451 26.986 143.827 27.022 143.383 27.094C142.939 27.166 142.621 27.292 142.429 27.472C142.237 27.652 142.141 27.898 142.141 28.21C142.141 28.594 142.273 28.912 142.537 29.164C142.813 29.404 143.149 29.524 143.545 29.524ZM157.352 18.22C157.688 18.22 157.964 18.316 158.18 18.508C158.396 18.7 158.504 18.952 158.504 19.264V30.028C158.504 30.352 158.402 30.61 158.198 30.802C157.994 30.994 157.724 31.09 157.388 31.09C157.052 31.09 156.782 30.994 156.578 30.802C156.374 30.61 156.272 30.352 156.272 30.028V29.578C156.008 30.07 155.624 30.454 155.12 30.73C154.628 31.006 154.064 31.144 153.428 31.144C152.672 31.144 151.994 30.952 151.394 30.568C150.806 30.184 150.344 29.644 150.008 28.948C149.684 28.24 149.522 27.43 149.522 26.518C149.522 25.606 149.684 24.808 150.008 24.124C150.344 23.44 150.806 22.912 151.394 22.54C151.982 22.168 152.66 21.982 153.428 21.982C154.064 21.982 154.628 22.114 155.12 22.378C155.612 22.642 155.99 23.014 156.254 23.494V19.228C156.254 18.928 156.35 18.688 156.542 18.508C156.746 18.316 157.016 18.22 157.352 18.22ZM154.022 29.398C154.742 29.398 155.294 29.152 155.678 28.66C156.074 28.168 156.272 27.466 156.272 26.554C156.272 25.642 156.074 24.946 155.678 24.466C155.294 23.974 154.748 23.728 154.04 23.728C153.32 23.728 152.762 23.968 152.366 24.448C151.97 24.928 151.772 25.618 151.772 26.518C151.772 27.43 151.97 28.138 152.366 28.642C152.762 29.146 153.314 29.398 154.022 29.398ZM79.2436 52.108C78.8956 52.108 78.6136 52 78.3976 51.784C78.1936 51.568 78.0916 51.286 78.0916 50.938V40.372C78.0916 40.024 78.1936 39.748 78.3976 39.544C78.6136 39.328 78.8956 39.22 79.2436 39.22C79.6036 39.22 79.8856 39.328 80.0896 39.544C80.3056 39.748 80.4136 40.024 80.4136 40.372V50.938C80.4136 51.286 80.3056 51.568 80.0896 51.784C79.8856 52 79.6036 52.108 79.2436 52.108ZM88.0681 42.982C89.1241 42.982 89.9101 43.282 90.4261 43.882C90.9421 44.482 91.2001 45.388 91.2001 46.6V51.028C91.2001 51.364 91.0981 51.628 90.8941 51.82C90.7021 52.012 90.4321 52.108 90.0841 52.108C89.7361 52.108 89.4601 52.012 89.2561 51.82C89.0521 51.628 88.9501 51.364 88.9501 51.028V46.726C88.9501 46.042 88.8181 45.544 88.5541 45.232C88.3021 44.92 87.9001 44.764 87.3481 44.764C86.7001 44.764 86.1781 44.968 85.7821 45.376C85.3981 45.784 85.2061 46.33 85.2061 47.014V51.028C85.2061 51.364 85.1041 51.628 84.9001 51.82C84.6961 52.012 84.4201 52.108 84.0721 52.108C83.7241 52.108 83.4481 52.012 83.2441 51.82C83.0521 51.628 82.9561 51.364 82.9561 51.028V44.062C82.9561 43.75 83.0581 43.498 83.2621 43.306C83.4661 43.114 83.7421 43.018 84.0901 43.018C84.4021 43.018 84.6541 43.114 84.8461 43.306C85.0501 43.486 85.1521 43.726 85.1521 44.026V44.512C85.4521 44.02 85.8541 43.642 86.3581 43.378C86.8621 43.114 87.4321 42.982 88.0681 42.982ZM104.24 52.162C103.016 52.162 101.942 51.898 101.018 51.37C100.106 50.842 99.4041 50.086 98.9121 49.102C98.4201 48.118 98.1741 46.966 98.1741 45.646C98.1741 44.326 98.4201 43.18 98.9121 42.208C99.4041 41.224 100.106 40.468 101.018 39.94C101.942 39.412 103.016 39.148 104.24 39.148C105.032 39.148 105.776 39.268 106.472 39.508C107.168 39.736 107.786 40.072 108.326 40.516C108.482 40.636 108.59 40.762 108.65 40.894C108.71 41.026 108.74 41.188 108.74 41.38C108.74 41.644 108.668 41.866 108.524 42.046C108.38 42.226 108.206 42.316 108.002 42.316C107.762 42.316 107.516 42.232 107.264 42.064C106.748 41.68 106.268 41.416 105.824 41.272C105.38 41.116 104.888 41.038 104.348 41.038C103.1 41.038 102.152 41.428 101.504 42.208C100.868 42.988 100.55 44.134 100.55 45.646C100.55 47.17 100.868 48.322 101.504 49.102C102.152 49.882 103.1 50.272 104.348 50.272C104.864 50.272 105.338 50.194 105.77 50.038C106.214 49.882 106.712 49.618 107.264 49.246C107.384 49.174 107.504 49.114 107.624 49.066C107.744 49.018 107.87 48.994 108.002 48.994C108.206 48.994 108.38 49.084 108.524 49.264C108.668 49.444 108.74 49.666 108.74 49.93C108.74 50.11 108.71 50.272 108.65 50.416C108.59 50.548 108.482 50.674 108.326 50.794C107.786 51.238 107.168 51.58 106.472 51.82C105.776 52.048 105.032 52.162 104.24 52.162ZM115.719 42.982C117.783 42.982 118.815 44.188 118.815 46.6V51.028C118.815 51.364 118.713 51.628 118.509 51.82C118.317 52.012 118.047 52.108 117.699 52.108C117.351 52.108 117.075 52.012 116.871 51.82C116.667 51.628 116.565 51.364 116.565 51.028V46.6C116.565 45.964 116.433 45.502 116.169 45.214C115.917 44.914 115.515 44.764 114.963 44.764C114.315 44.764 113.793 44.968 113.397 45.376C113.013 45.784 112.821 46.33 112.821 47.014V51.028C112.821 51.364 112.719 51.628 112.515 51.82C112.311 52.012 112.035 52.108 111.687 52.108C111.339 52.108 111.063 52.012 110.859 51.82C110.667 51.628 110.571 51.364 110.571 51.028V40.264C110.571 39.952 110.673 39.7 110.877 39.508C111.093 39.316 111.369 39.22 111.705 39.22C112.041 39.22 112.311 39.31 112.515 39.49C112.719 39.67 112.821 39.916 112.821 40.228V44.422C113.121 43.954 113.517 43.6 114.009 43.36C114.513 43.108 115.083 42.982 115.719 42.982ZM126.015 43.018C126.327 42.994 126.573 43.06 126.753 43.216C126.933 43.372 127.023 43.606 127.023 43.918C127.023 44.242 126.945 44.482 126.789 44.638C126.633 44.794 126.351 44.896 125.943 44.944L125.403 44.998C124.695 45.07 124.173 45.31 123.837 45.718C123.513 46.126 123.351 46.636 123.351 47.248V51.028C123.351 51.376 123.243 51.646 123.027 51.838C122.811 52.018 122.541 52.108 122.217 52.108C121.893 52.108 121.623 52.018 121.407 51.838C121.203 51.646 121.101 51.376 121.101 51.028V44.062C121.101 43.726 121.203 43.468 121.407 43.288C121.623 43.108 121.887 43.018 122.199 43.018C122.511 43.018 122.763 43.108 122.955 43.288C123.147 43.456 123.243 43.702 123.243 44.026V44.746C123.471 44.218 123.807 43.81 124.251 43.522C124.707 43.234 125.211 43.072 125.763 43.036L126.015 43.018ZM131.83 52.144C130.93 52.144 130.138 51.958 129.454 51.586C128.782 51.214 128.26 50.68 127.888 49.984C127.516 49.288 127.33 48.478 127.33 47.554C127.33 46.63 127.516 45.826 127.888 45.142C128.26 44.446 128.782 43.912 129.454 43.54C130.138 43.168 130.93 42.982 131.83 42.982C132.73 42.982 133.516 43.168 134.188 43.54C134.872 43.912 135.394 44.446 135.754 45.142C136.126 45.826 136.312 46.63 136.312 47.554C136.312 48.478 136.126 49.288 135.754 49.984C135.394 50.68 134.872 51.214 134.188 51.586C133.516 51.958 132.73 52.144 131.83 52.144ZM131.812 50.398C132.544 50.398 133.102 50.158 133.486 49.678C133.87 49.198 134.062 48.49 134.062 47.554C134.062 46.63 133.87 45.928 133.486 45.448C133.102 44.956 132.55 44.71 131.83 44.71C131.11 44.71 130.552 44.956 130.156 45.448C129.772 45.928 129.58 46.63 129.58 47.554C129.58 48.49 129.772 49.198 130.156 49.678C130.54 50.158 131.092 50.398 131.812 50.398ZM148.627 42.982C149.587 42.982 150.319 43.27 150.823 43.846C151.339 44.41 151.597 45.328 151.597 46.6V51.028C151.597 51.376 151.489 51.646 151.273 51.838C151.069 52.018 150.799 52.108 150.463 52.108C150.139 52.108 149.869 52.018 149.653 51.838C149.449 51.646 149.347 51.376 149.347 51.028V46.6C149.347 45.94 149.227 45.472 148.987 45.196C148.759 44.908 148.405 44.764 147.925 44.764C147.337 44.764 146.869 44.968 146.521 45.376C146.173 45.772 145.999 46.318 145.999 47.014V51.028C145.999 51.376 145.891 51.646 145.675 51.838C145.471 52.018 145.207 52.108 144.883 52.108C144.559 52.108 144.289 52.018 144.073 51.838C143.857 51.646 143.749 51.376 143.749 51.028V46.6C143.749 45.94 143.629 45.472 143.389 45.196C143.161 44.908 142.807 44.764 142.327 44.764C141.739 44.764 141.271 44.968 140.923 45.376C140.587 45.772 140.419 46.318 140.419 47.014V51.028C140.419 51.376 140.311 51.646 140.095 51.838C139.879 52.018 139.609 52.108 139.285 52.108C138.961 52.108 138.691 52.018 138.475 51.838C138.271 51.646 138.169 51.376 138.169 51.028V44.062C138.169 43.726 138.277 43.468 138.493 43.288C138.709 43.108 138.979 43.018 139.303 43.018C139.615 43.018 139.867 43.108 140.059 43.288C140.263 43.456 140.365 43.702 140.365 44.026V44.458C140.641 43.978 141.007 43.612 141.463 43.36C141.931 43.108 142.465 42.982 143.065 42.982C144.385 42.982 145.267 43.534 145.711 44.638C145.975 44.134 146.365 43.732 146.881 43.432C147.397 43.132 147.979 42.982 148.627 42.982ZM160.85 49.588C161.054 49.588 161.216 49.666 161.336 49.822C161.468 49.978 161.534 50.188 161.534 50.452C161.534 50.824 161.312 51.136 160.868 51.388C160.46 51.616 159.998 51.802 159.482 51.946C158.966 52.078 158.474 52.144 158.006 52.144C156.59 52.144 155.468 51.736 154.64 50.92C153.812 50.104 153.398 48.988 153.398 47.572C153.398 46.672 153.578 45.874 153.938 45.178C154.298 44.482 154.802 43.942 155.45 43.558C156.11 43.174 156.854 42.982 157.682 42.982C158.474 42.982 159.164 43.156 159.752 43.504C160.34 43.852 160.796 44.344 161.12 44.98C161.444 45.616 161.606 46.366 161.606 47.23C161.606 47.746 161.378 48.004 160.922 48.004H155.612C155.684 48.832 155.918 49.444 156.314 49.84C156.71 50.224 157.286 50.416 158.042 50.416C158.426 50.416 158.762 50.368 159.05 50.272C159.35 50.176 159.686 50.044 160.058 49.876C160.418 49.684 160.682 49.588 160.85 49.588ZM157.736 44.566C157.124 44.566 156.632 44.758 156.26 45.142C155.9 45.526 155.684 46.078 155.612 46.798H159.68C159.656 46.066 159.476 45.514 159.14 45.142C158.804 44.758 158.336 44.566 157.736 44.566Z" fill="#45BFEB"/>
<path fill-rule="evenodd" clip-rule="evenodd" d="M32.3408 23.2447L35.247 31.8444C36.6431 29.5805 39.1449 28.0708 42 28.0708C42.1266 28.0708 42.2522 28.0745 42.3773 28.0803H55.905C53.1502 23.2538 47.9553 20 42 20C38.3711 20 35.0251 21.2088 32.3408 23.2447ZM46.5778 42.4722C48.6047 41.0359 49.9292 38.6734 49.9292 36C49.9292 34.0632 49.2338 32.2893 48.0803 30.9121H57.1735C57.7093 32.5106 58 34.2212 58 36C58 44.8365 50.8365 52 42 52C40.0806 52 38.2403 51.6616 36.5351 51.0418L46.5778 42.4722ZM33.7392 49.7048L40.6455 43.8115C37.5279 43.2746 35.0342 40.9188 34.2958 37.875L30.0624 25.3481C27.5363 28.177 26 31.9088 26 36C26 41.8139 29.1012 46.9031 33.7392 49.7048ZM46.9558 36C46.9558 38.737 44.737 40.9558 42 40.9558C39.263 40.9558 37.0442 38.737 37.0442 36C37.0442 33.263 39.263 31.0442 42 31.0442C44.737 31.0442 46.9558 33.263 46.9558 36Z" fill="#45BFEB"/>
<defs>
<filter id="filter0_d" x="0" y="0" width="190" height="78" filterUnits="userSpaceOnUse" color-interpolation-filters="sRGB">
<feFlood flood-opacity="0" result="BackgroundImageFix"/>
<feColorMatrix in="SourceAlpha" type="matrix" values="0 0 0 0 0 0 0 0 0 0 0 0 0 0 0 0 0 0 127 0"/>
<feOffset dy="3"/>
<feGaussianBlur stdDeviation="5"/>
<feColorMatrix type="matrix" values="0 0 0 0 0.282353 0 0 0 0 0.698039 0 0 0 0 0.894118 0 0 0 0.204993 0"/>
<feBlend mode="normal" in2="BackgroundImageFix" result="effect1_dropShadow"/>
<feBlend mode="normal" in="SourceGraphic" in2="effect1_dropShadow" result="shape"/>
</filter>
</defs>
</svg>
