<svg width="104" height="45" viewBox="0 0 104 45" fill="none" xmlns="http://www.w3.org/2000/svg">
<path fill-rule="evenodd" clip-rule="evenodd" d="M21.4517 20.0621L21.4517 20.0621L21.4519 20.0621L21.4529 20.062C21.6236 20.0511 21.7694 20.0417 21.8654 20.0339C21.874 21.0489 21.8782 22.2521 21.8782 23.6435C19.8409 27.015 18.3345 30.102 17.3592 32.9044C16.3839 35.7069 15.8962 38.1603 15.8962 40.2649C15.8962 41.7466 16.178 42.9062 16.7415 43.7437C17.305 44.5813 18.172 45 19.3424 45C21.2714 45 22.7343 43.6095 23.7314 40.8286C24.7284 38.0476 25.3677 34.5848 25.6495 30.4402C26.9933 30.4188 28.2829 30.0107 29.5183 29.2162C30.2335 30.0322 31.1655 30.4402 32.3142 30.4402C33.6797 30.4402 34.8988 30.0752 35.9717 29.345C36.5842 28.9282 37.1738 28.4449 37.7403 27.895C37.9267 28.1462 38.1337 28.3826 38.3613 28.6042C39.6184 29.8282 41.3848 30.4402 43.6605 30.4402C45.3294 30.4402 46.8954 30.0322 48.3584 29.2162C49.1121 28.7958 49.7781 28.3554 50.3563 27.8951C50.5447 28.1627 50.7565 28.4151 50.9917 28.6525C52.173 29.8443 53.8256 30.4402 55.9497 30.4402C57.2718 30.4402 58.6426 30.102 60.0623 29.4256C60.8254 29.0619 61.5306 28.6161 62.1778 28.088C62.2977 28.7931 62.4811 29.3356 62.7282 29.7155C63.0425 30.1986 63.5355 30.4402 64.2074 30.4402C64.8793 30.4402 65.3724 30.2631 65.6867 29.9087C66.0009 29.5544 66.2773 28.8726 66.5157 27.8633C66.8625 26.4674 67.3393 25.1092 67.9462 23.7885C68.5531 22.4678 69.2087 21.3887 69.9131 20.5512C70.6175 19.7137 71.2623 19.2949 71.8475 19.2949C72.0859 19.2949 72.2864 19.3916 72.4489 19.5848C72.6115 19.7781 72.6928 20.068 72.6928 20.4545C72.6928 21.1203 72.4869 21.684 72.0751 22.1457C71.6633 22.6074 70.9805 23.0422 70.0269 23.4503C69.1599 23.8153 68.7264 24.4166 68.7264 25.2541C68.7264 26.8218 69.2358 28.078 70.2545 29.0229C71.2731 29.9678 72.6169 30.4402 74.2858 30.4402C75.6513 30.4402 76.8325 30.0859 77.8295 29.3772C78.5972 28.8316 79.3585 28.1458 80.1133 27.3201C80.1979 27.5064 80.2873 27.6875 80.3816 27.8633C81.3027 29.5813 82.717 30.4402 84.6243 30.4402C86.0114 30.4402 87.2522 30.0752 88.3468 29.345C88.9521 28.9412 89.5326 28.475 90.0882 27.9465C90.2455 28.172 90.4182 28.3858 90.6063 28.588C91.755 29.8228 93.3697 30.4402 95.4504 30.4402C96.8159 30.4402 97.9917 30.1825 98.9778 29.6671C99.964 29.1518 100.761 28.4324 101.367 27.5089C101.736 26.9506 101.92 26.2849 101.92 25.5118C101.92 25.0608 101.839 24.7065 101.676 24.4488C101.514 24.1911 101.292 24.0623 101.01 24.0623C100.685 24.0623 100.392 24.2233 100.132 24.5455C99.3734 25.5118 98.7069 26.199 98.1326 26.607C97.5582 27.015 96.8267 27.219 95.9381 27.219C94.7026 27.219 93.8249 26.7251 93.3047 25.7373C95.8839 25.1145 97.7099 24.2717 98.7828 23.2087C99.8556 22.1457 100.392 20.8733 100.392 19.3916C100.392 18.1245 100.013 17.1206 99.2542 16.3797C98.4956 15.6389 97.4878 15.2684 96.2307 15.2684C94.8219 15.2684 93.5594 15.6442 92.4432 16.3958C91.3269 17.1475 90.4546 18.1621 89.826 19.4399C89.1975 20.7176 88.8832 22.0973 88.8832 23.5791C88.8832 24.0522 88.9122 24.5034 88.9703 24.9326C88.4701 25.451 88.0293 25.8534 87.6478 26.1399C86.9759 26.6446 86.1956 26.8969 85.307 26.8969C84.7435 26.8969 84.2883 26.709 83.9415 26.3332C83.5948 25.9574 83.3455 25.3293 83.1938 24.4488C85.643 21.1417 87.5828 17.8025 89.0133 14.4309C90.4437 11.0594 91.159 8.09593 91.159 5.54044C91.159 3.75804 90.861 2.38905 90.2649 1.43343C89.6689 0.477805 88.8507 0 87.8103 0C85.968 0 84.3804 1.20257 83.0475 3.60773C81.7145 6.0129 80.7067 8.89046 80.024 12.2405C79.3413 15.5906 78.9999 18.5755 78.9999 21.1954C78.9999 22.2146 79.0642 23.1632 79.1928 24.0414C78.3675 24.988 77.6855 25.6821 77.1468 26.1238C76.5182 26.6392 75.868 26.8969 75.1961 26.8969C74.5676 26.8969 74.0311 26.7198 73.5868 26.3654C73.1425 26.0111 72.877 25.544 72.7903 24.9642C74.2641 24.1911 75.3045 23.3107 75.9114 22.3228C76.5182 21.335 76.8217 20.2505 76.8217 19.0694C76.8217 17.9957 76.4911 17.0938 75.8301 16.3636C75.169 15.6335 74.2967 15.2684 73.213 15.2684C72.0425 15.2684 70.7855 15.8751 69.4417 17.0884C68.0979 18.3017 66.9058 20.2505 65.8655 22.9349C65.8655 21.7538 65.898 20.6049 65.963 19.4882C68.8457 16.3744 70.9263 13.6525 72.2051 11.3225C73.4839 8.99247 74.1233 6.74303 74.1233 4.57409C74.1233 3.22118 73.8144 2.12062 73.1967 1.27237C72.579 0.424119 71.7716 0 70.7746 0C68.9107 0 67.3122 1.21867 65.9793 3.65605C64.6463 6.09343 63.6385 9.10521 62.9558 12.6915C62.273 16.2778 61.9317 19.7244 61.9317 23.0315C61.9317 23.4532 61.9342 23.853 61.9392 24.2307C61.1397 25.076 60.3298 25.7339 59.5096 26.2044C58.4801 26.7949 57.521 27.0902 56.6324 27.0902C54.4433 27.0902 53.3488 25.8447 53.3488 23.3536C53.3488 22.4517 53.4788 21.6249 53.7389 20.8733C53.999 20.1217 54.3458 19.5258 54.7793 19.0855C55.2127 18.6453 55.6787 18.4252 56.1772 18.4252C56.4373 18.4252 56.6378 18.5004 56.7787 18.6507C56.9196 18.801 56.99 19.0157 56.99 19.2949C56.99 19.5741 56.9358 19.8747 56.8275 20.1969C56.8058 20.2828 56.7733 20.4223 56.7299 20.6156C56.6866 20.8089 56.6649 20.9807 56.6649 21.131C56.6649 21.4746 56.7895 21.743 57.0388 21.9363C57.288 22.1296 57.6185 22.2262 58.0304 22.2262C58.6806 22.2262 59.2062 21.9148 59.6071 21.2921C60.0081 20.6693 60.2086 19.9069 60.2086 19.005C60.2086 17.9098 59.8781 17.0132 59.217 16.3153C58.5559 15.6174 57.6294 15.2684 56.4373 15.2684C55.2236 15.2684 54.064 15.6228 52.9587 16.3314C51.8533 17.0401 50.9538 18.0494 50.2603 19.3593C49.5667 20.6693 49.2199 22.194 49.2199 23.9334C49.2199 24.2614 49.2365 24.5786 49.2698 24.885C48.6818 25.3893 48.042 25.829 47.3505 26.2044C46.1043 26.8808 44.9935 27.219 44.0182 27.219C42.501 27.219 41.4715 26.7251 40.9296 25.7373C43.4872 25.1145 45.3023 24.2717 46.3752 23.2087C47.4481 22.1457 47.9845 20.8733 47.9845 19.3916C47.9845 18.1245 47.6052 17.1206 46.8466 16.3797C46.088 15.6389 45.0802 15.2684 43.8231 15.2684C42.4143 15.2684 41.1518 15.6442 40.0356 16.3958C38.9194 17.1475 38.047 18.1621 37.4184 19.4399C36.7899 20.7176 36.4756 22.0973 36.4756 23.5791C36.4756 24.0539 36.507 24.5062 36.5697 24.936C36.0905 25.4395 35.669 25.8355 35.3052 26.1238C34.655 26.6392 33.9723 26.8969 33.257 26.8969C32.9536 26.8969 32.5743 26.8325 32.1192 26.7037C32.7694 25.8232 33.2787 24.8461 33.6472 23.7724C34.0156 22.6986 34.1999 21.5927 34.1999 20.4545C34.1999 18.8869 33.8152 17.6199 33.0457 16.6535C32.2763 15.6872 31.2847 15.204 30.071 15.204C29.3124 15.204 28.5972 15.3919 27.9253 15.7677C27.2534 16.1435 26.5706 16.7609 25.8771 17.6199C25.8554 17.3622 25.8446 16.9649 25.8446 16.4281C25.8229 15.8912 25.7091 15.5315 25.5032 15.349C25.2973 15.1664 24.9668 15.0752 24.5116 15.0752C23.7313 15.0752 23.0811 15.2577 22.561 15.6228C22.0408 15.9878 21.7915 16.4817 21.8132 17.1045C21.8217 17.3442 21.8294 17.6206 21.8362 17.9336L19.3873 18.1753C18.9774 17.4752 18.3227 16.8552 17.6124 16.4281C16.9021 16.0009 16.458 15.7677 14.8375 15.2201C13.217 14.6725 12.679 14.3446 12.2533 13.9471C11.8276 13.5496 11.5814 12.9738 11.5145 12.2197C11.4171 11.1207 11.9638 9.88477 13.1544 8.51175C14.3451 7.13873 15.4463 6.40854 16.458 6.32115C17.1684 6.2598 17.5532 6.5631 17.6124 7.23108C17.6716 7.89905 17.4242 8.71833 16.8703 9.68896C16.3165 10.6596 15.5718 11.3745 14.8375 11.9001C14.1032 12.4257 14.4861 13.7455 15.8185 12.8704C17.1509 11.9954 18.3734 11.003 19.3873 9.47156C20.4012 7.9401 20.6182 7.10651 20.6353 6.09542C20.6523 5.08432 20.3699 4.16659 19.8513 3.60773C19.3328 3.04887 18.4007 2.64213 16.7415 2.64213C15.0824 2.64213 13.6383 3.27561 11.9915 4.36574C10.3446 5.45587 9.32983 6.72756 8.33927 8.4002C7.3487 10.0728 7.17029 11.9609 7.26959 13.0814C7.36889 14.2019 7.70363 15.0589 8.33927 15.6228C8.97491 16.1867 9.94746 16.7481 11.2439 17.184C12.3808 17.5663 13.7638 17.9343 14.4321 18.1122L14.4321 18.1122L14.4322 18.1122C14.5259 18.1371 14.6055 18.1583 14.6685 18.1753C15.1804 18.3133 15.8962 18.5456 16.2956 18.7956C14.5222 19.1008 12.1029 19.8662 9.96392 20.9411C7.82497 22.0161 6.30054 23.0448 4.76329 24.5455C3.22604 26.0461 2.45794 27.3479 2.19311 28.6525C1.92828 29.9571 2.087 31.2401 3.11954 32.1165C4.15208 32.993 5.79437 33.3686 7.67623 33.3846C9.5581 33.4005 12.2143 33.0345 14.3693 31.7736C16.5243 30.5127 17.7549 29.1269 18.7897 27.219C19.8245 25.3112 19.9816 22.3228 19.9506 20.1969C20.2599 20.1387 20.959 20.0938 21.4516 20.0621L21.4517 20.0621ZM28.0801 26.4043C27.3381 27.0891 26.5292 27.5184 25.6534 27.6923C25.6777 27.1488 25.6899 26.3771 25.6899 25.3771C25.6899 23.5293 25.7021 22.1271 25.7264 21.1706C26.9671 19.5184 28.0253 18.6923 28.9011 18.6923C29.3877 18.6923 29.7769 18.8608 30.0688 19.1977C30.3608 19.5347 30.5067 20.0293 30.5067 20.6814C30.5067 21.7901 30.2878 22.8499 29.8499 23.8608C29.412 24.8717 28.8221 25.7195 28.0801 26.4043ZM19.4656 42.2308C20.0024 42.2308 20.4497 40.9742 20.8075 38.4611C21.1654 35.9479 21.394 32.8199 21.4934 29.0769C20.6385 31.2158 19.9626 33.2583 19.4656 35.2047C18.9686 37.151 18.7201 38.7872 18.7201 40.1133C18.7201 40.7978 18.7946 41.3218 18.9437 41.6854C19.0928 42.049 19.2668 42.2308 19.4656 42.2308ZM41.6028 19.3986C42.0669 18.4662 42.6355 18 43.3088 18C43.6364 18 43.8957 18.1247 44.0868 18.374C44.2779 18.6234 44.3734 18.9541 44.3734 19.366C44.3734 20.1683 44.0641 20.873 43.4453 21.4801C42.8266 22.0873 41.9804 22.5426 40.9067 22.8462V22.7811C40.9067 21.4584 41.1388 20.3309 41.6028 19.3986ZM69.8037 2.76923C69.3964 2.76923 68.9439 3.3307 68.4461 4.45366C67.9484 5.57663 67.4676 7.09206 67.0037 9C66.5399 10.9079 66.1609 12.9848 65.8667 15.2308C67.2696 13.639 68.4292 11.9055 69.3455 10.0303C70.2619 8.15505 70.7201 6.45428 70.7201 4.92792C70.7201 4.23016 70.6409 3.69594 70.4825 3.32526C70.3241 2.95457 70.0979 2.76923 69.8037 2.76923ZM85.1906 6.08835C85.8825 4.33713 86.5027 3.46154 87.0514 3.46154C87.7194 3.46154 88.0534 4.26329 88.0534 5.86681C88.0534 7.91342 87.5524 10.1763 86.5504 12.6554C85.5485 15.1345 84.2006 17.6083 82.5067 20.0769C82.5545 17.6927 82.8407 15.2031 83.3656 12.6079C83.8904 10.0127 84.4988 7.83957 85.1906 6.08835ZM95.3088 18C94.6355 18 94.0668 18.4662 93.6028 19.3986C93.1388 20.3309 92.9067 21.4584 92.9067 22.7811V22.8462C93.9804 22.5426 94.8266 22.0873 95.4453 21.4801C96.0641 20.873 96.3734 20.1683 96.3734 19.366C96.3734 18.9541 96.2779 18.6234 96.0868 18.374C95.8957 18.1247 95.6364 18 95.3088 18ZM9.42265 29.7362C7.86686 29.8785 7.03083 29.5766 6.94343 28.5316C6.82142 27.0729 7.81413 25.5451 9.92158 23.9482C12.029 22.3512 14.6194 21.3023 17.3284 20.7692C17.3441 20.9578 17.3323 21.9334 17.1543 22.9238C17.0101 23.7266 16.74 24.5008 16.4204 25.1787C15.7065 26.6929 14.5674 27.7207 13.2584 28.5316C11.9495 29.3424 10.2803 29.6577 9.42265 29.7362Z" fill="#45BFEB"/>
</svg>
